<mxfile host="app.diagrams.net" modified="2021-08-18T02:27:57.644Z" agent="5.0 (Macintosh; Intel Mac OS X 10_15_7) AppleWebKit/537.36 (KHTML, like Gecko) Chrome/92.0.4515.131 Safari/537.36" etag="h21l8XoJIHAQJxhDdylH" version="14.9.7" type="github">
  <diagram id="R2lEEEUBdFMjLlhIrx00" name="Page-1">
    <mxGraphModel dx="879" dy="614" grid="1" gridSize="10" guides="1" tooltips="1" connect="1" arrows="1" fold="1" page="1" pageScale="1" pageWidth="850" pageHeight="1100" math="0" shadow="0" extFonts="Permanent Marker^https://fonts.googleapis.com/css?family=Permanent+Marker">
      <root>
        <mxCell id="0" />
        <mxCell id="1" parent="0" />
        <mxCell id="125zvC_kCItTa6n3HtVr-62" value="properties" style="shape=table;startSize=30;container=1;collapsible=1;childLayout=tableLayout;fixedRows=1;rowLines=0;fontStyle=1;align=center;resizeLast=1;" vertex="1" parent="1">
          <mxGeometry x="840" width="450" height="520" as="geometry" />
        </mxCell>
        <mxCell id="125zvC_kCItTa6n3HtVr-63" value="" style="shape=partialRectangle;collapsible=0;dropTarget=0;pointerEvents=0;fillColor=none;top=0;left=0;bottom=1;right=0;points=[[0,0.5],[1,0.5]];portConstraint=eastwest;" vertex="1" parent="125zvC_kCItTa6n3HtVr-62">
          <mxGeometry y="30" width="450" height="30" as="geometry" />
        </mxCell>
        <mxCell id="125zvC_kCItTa6n3HtVr-64" value="PK" style="shape=partialRectangle;connectable=0;fillColor=none;top=0;left=0;bottom=0;right=0;fontStyle=1;overflow=hidden;" vertex="1" parent="125zvC_kCItTa6n3HtVr-63">
          <mxGeometry width="30" height="30" as="geometry" />
        </mxCell>
        <mxCell id="125zvC_kCItTa6n3HtVr-65" value="SERIAL PRIMARY KEY" style="shape=partialRectangle;connectable=0;fillColor=none;top=0;left=0;bottom=0;right=0;align=left;spacingLeft=6;fontStyle=5;overflow=hidden;" vertex="1" parent="125zvC_kCItTa6n3HtVr-63">
          <mxGeometry x="30" width="420" height="30" as="geometry" />
        </mxCell>
        <mxCell id="125zvC_kCItTa6n3HtVr-66" value="" style="shape=partialRectangle;collapsible=0;dropTarget=0;pointerEvents=0;fillColor=none;top=0;left=0;bottom=0;right=0;points=[[0,0.5],[1,0.5]];portConstraint=eastwest;" vertex="1" parent="125zvC_kCItTa6n3HtVr-62">
          <mxGeometry y="60" width="450" height="30" as="geometry" />
        </mxCell>
        <mxCell id="125zvC_kCItTa6n3HtVr-67" value="" style="shape=partialRectangle;connectable=0;fillColor=none;top=0;left=0;bottom=0;right=0;editable=1;overflow=hidden;" vertex="1" parent="125zvC_kCItTa6n3HtVr-66">
          <mxGeometry width="30" height="30" as="geometry" />
        </mxCell>
        <mxCell id="125zvC_kCItTa6n3HtVr-68" value="title                                        VARCHAR(255)" style="shape=partialRectangle;connectable=0;fillColor=none;top=0;left=0;bottom=0;right=0;align=left;spacingLeft=6;overflow=hidden;" vertex="1" parent="125zvC_kCItTa6n3HtVr-66">
          <mxGeometry x="30" width="420" height="30" as="geometry" />
        </mxCell>
        <mxCell id="125zvC_kCItTa6n3HtVr-69" value="" style="shape=partialRectangle;collapsible=0;dropTarget=0;pointerEvents=0;fillColor=none;top=0;left=0;bottom=0;right=0;points=[[0,0.5],[1,0.5]];portConstraint=eastwest;" vertex="1" parent="125zvC_kCItTa6n3HtVr-62">
          <mxGeometry y="90" width="450" height="30" as="geometry" />
        </mxCell>
        <mxCell id="125zvC_kCItTa6n3HtVr-70" value="" style="shape=partialRectangle;connectable=0;fillColor=none;top=0;left=0;bottom=0;right=0;editable=1;overflow=hidden;" vertex="1" parent="125zvC_kCItTa6n3HtVr-69">
          <mxGeometry width="30" height="30" as="geometry" />
        </mxCell>
        <mxCell id="125zvC_kCItTa6n3HtVr-71" value="description                            TEXT" style="shape=partialRectangle;connectable=0;fillColor=none;top=0;left=0;bottom=0;right=0;align=left;spacingLeft=6;overflow=hidden;" vertex="1" parent="125zvC_kCItTa6n3HtVr-69">
          <mxGeometry x="30" width="420" height="30" as="geometry" />
        </mxCell>
        <mxCell id="125zvC_kCItTa6n3HtVr-72" value="" style="shape=partialRectangle;collapsible=0;dropTarget=0;pointerEvents=0;fillColor=none;top=0;left=0;bottom=0;right=0;points=[[0,0.5],[1,0.5]];portConstraint=eastwest;" vertex="1" parent="125zvC_kCItTa6n3HtVr-62">
          <mxGeometry y="120" width="450" height="30" as="geometry" />
        </mxCell>
        <mxCell id="125zvC_kCItTa6n3HtVr-73" value="" style="shape=partialRectangle;connectable=0;fillColor=none;top=0;left=0;bottom=0;right=0;editable=1;overflow=hidden;" vertex="1" parent="125zvC_kCItTa6n3HtVr-72">
          <mxGeometry width="30" height="30" as="geometry" />
        </mxCell>
        <mxCell id="125zvC_kCItTa6n3HtVr-74" value="cost_per_night                     MONEY" style="shape=partialRectangle;connectable=0;fillColor=none;top=0;left=0;bottom=0;right=0;align=left;spacingLeft=6;overflow=hidden;" vertex="1" parent="125zvC_kCItTa6n3HtVr-72">
          <mxGeometry x="30" width="420" height="30" as="geometry" />
        </mxCell>
        <mxCell id="125zvC_kCItTa6n3HtVr-75" value="" style="shape=partialRectangle;collapsible=0;dropTarget=0;pointerEvents=0;fillColor=none;top=0;left=0;bottom=0;right=0;points=[[0,0.5],[1,0.5]];portConstraint=eastwest;" vertex="1" parent="125zvC_kCItTa6n3HtVr-62">
          <mxGeometry y="150" width="450" height="30" as="geometry" />
        </mxCell>
        <mxCell id="125zvC_kCItTa6n3HtVr-76" value="" style="shape=partialRectangle;connectable=0;fillColor=none;top=0;left=0;bottom=0;right=0;editable=1;overflow=hidden;" vertex="1" parent="125zvC_kCItTa6n3HtVr-75">
          <mxGeometry width="30" height="30" as="geometry" />
        </mxCell>
        <mxCell id="125zvC_kCItTa6n3HtVr-77" value="parking_spaces                    INTEGER" style="shape=partialRectangle;connectable=0;fillColor=none;top=0;left=0;bottom=0;right=0;align=left;spacingLeft=6;overflow=hidden;" vertex="1" parent="125zvC_kCItTa6n3HtVr-75">
          <mxGeometry x="30" width="420" height="30" as="geometry" />
        </mxCell>
        <mxCell id="125zvC_kCItTa6n3HtVr-78" value="" style="shape=partialRectangle;collapsible=0;dropTarget=0;pointerEvents=0;fillColor=none;top=0;left=0;bottom=0;right=0;points=[[0,0.5],[1,0.5]];portConstraint=eastwest;" vertex="1" parent="125zvC_kCItTa6n3HtVr-62">
          <mxGeometry y="180" width="450" height="30" as="geometry" />
        </mxCell>
        <mxCell id="125zvC_kCItTa6n3HtVr-79" value="" style="shape=partialRectangle;connectable=0;fillColor=none;top=0;left=0;bottom=0;right=0;editable=1;overflow=hidden;" vertex="1" parent="125zvC_kCItTa6n3HtVr-78">
          <mxGeometry width="30" height="30" as="geometry" />
        </mxCell>
        <mxCell id="125zvC_kCItTa6n3HtVr-80" value="num_bathrooms                   INTEGER" style="shape=partialRectangle;connectable=0;fillColor=none;top=0;left=0;bottom=0;right=0;align=left;spacingLeft=6;overflow=hidden;" vertex="1" parent="125zvC_kCItTa6n3HtVr-78">
          <mxGeometry x="30" width="420" height="30" as="geometry" />
        </mxCell>
        <mxCell id="125zvC_kCItTa6n3HtVr-81" value="" style="shape=partialRectangle;collapsible=0;dropTarget=0;pointerEvents=0;fillColor=none;top=0;left=0;bottom=0;right=0;points=[[0,0.5],[1,0.5]];portConstraint=eastwest;" vertex="1" parent="125zvC_kCItTa6n3HtVr-62">
          <mxGeometry y="210" width="450" height="30" as="geometry" />
        </mxCell>
        <mxCell id="125zvC_kCItTa6n3HtVr-82" value="" style="shape=partialRectangle;connectable=0;fillColor=none;top=0;left=0;bottom=0;right=0;editable=1;overflow=hidden;" vertex="1" parent="125zvC_kCItTa6n3HtVr-81">
          <mxGeometry width="30" height="30" as="geometry" />
        </mxCell>
        <mxCell id="125zvC_kCItTa6n3HtVr-83" value="thumbnail_photo_url            VARCHAR(255)" style="shape=partialRectangle;connectable=0;fillColor=none;top=0;left=0;bottom=0;right=0;align=left;spacingLeft=6;overflow=hidden;" vertex="1" parent="125zvC_kCItTa6n3HtVr-81">
          <mxGeometry x="30" width="420" height="30" as="geometry" />
        </mxCell>
        <mxCell id="125zvC_kCItTa6n3HtVr-84" value="" style="shape=partialRectangle;collapsible=0;dropTarget=0;pointerEvents=0;fillColor=none;top=0;left=0;bottom=0;right=0;points=[[0,0.5],[1,0.5]];portConstraint=eastwest;" vertex="1" parent="125zvC_kCItTa6n3HtVr-62">
          <mxGeometry y="240" width="450" height="30" as="geometry" />
        </mxCell>
        <mxCell id="125zvC_kCItTa6n3HtVr-85" value="" style="shape=partialRectangle;connectable=0;fillColor=none;top=0;left=0;bottom=0;right=0;editable=1;overflow=hidden;" vertex="1" parent="125zvC_kCItTa6n3HtVr-84">
          <mxGeometry width="30" height="30" as="geometry" />
        </mxCell>
        <mxCell id="125zvC_kCItTa6n3HtVr-86" value="cover_photo_url                   VARCHAR(255)" style="shape=partialRectangle;connectable=0;fillColor=none;top=0;left=0;bottom=0;right=0;align=left;spacingLeft=6;overflow=hidden;" vertex="1" parent="125zvC_kCItTa6n3HtVr-84">
          <mxGeometry x="30" width="420" height="30" as="geometry" />
        </mxCell>
        <mxCell id="125zvC_kCItTa6n3HtVr-87" value="" style="shape=partialRectangle;collapsible=0;dropTarget=0;pointerEvents=0;fillColor=none;top=0;left=0;bottom=0;right=0;points=[[0,0.5],[1,0.5]];portConstraint=eastwest;" vertex="1" parent="125zvC_kCItTa6n3HtVr-62">
          <mxGeometry y="270" width="450" height="30" as="geometry" />
        </mxCell>
        <mxCell id="125zvC_kCItTa6n3HtVr-88" value="" style="shape=partialRectangle;connectable=0;fillColor=none;top=0;left=0;bottom=0;right=0;editable=1;overflow=hidden;" vertex="1" parent="125zvC_kCItTa6n3HtVr-87">
          <mxGeometry width="30" height="30" as="geometry" />
        </mxCell>
        <mxCell id="125zvC_kCItTa6n3HtVr-89" value="active                                   BOOLEAN DEFAULT TRUE" style="shape=partialRectangle;connectable=0;fillColor=none;top=0;left=0;bottom=0;right=0;align=left;spacingLeft=6;overflow=hidden;" vertex="1" parent="125zvC_kCItTa6n3HtVr-87">
          <mxGeometry x="30" width="420" height="30" as="geometry" />
        </mxCell>
        <mxCell id="125zvC_kCItTa6n3HtVr-90" value="" style="shape=partialRectangle;collapsible=0;dropTarget=0;pointerEvents=0;fillColor=none;top=0;left=0;bottom=0;right=0;points=[[0,0.5],[1,0.5]];portConstraint=eastwest;" vertex="1" parent="125zvC_kCItTa6n3HtVr-62">
          <mxGeometry y="300" width="450" height="30" as="geometry" />
        </mxCell>
        <mxCell id="125zvC_kCItTa6n3HtVr-91" value="" style="shape=partialRectangle;connectable=0;fillColor=none;top=0;left=0;bottom=0;right=0;editable=1;overflow=hidden;" vertex="1" parent="125zvC_kCItTa6n3HtVr-90">
          <mxGeometry width="30" height="30" as="geometry" />
        </mxCell>
        <mxCell id="125zvC_kCItTa6n3HtVr-92" value="street                                    VARCHAR(64)" style="shape=partialRectangle;connectable=0;fillColor=none;top=0;left=0;bottom=0;right=0;align=left;spacingLeft=6;overflow=hidden;" vertex="1" parent="125zvC_kCItTa6n3HtVr-90">
          <mxGeometry x="30" width="420" height="30" as="geometry" />
        </mxCell>
        <mxCell id="125zvC_kCItTa6n3HtVr-93" value="" style="shape=partialRectangle;collapsible=0;dropTarget=0;pointerEvents=0;fillColor=none;top=0;left=0;bottom=0;right=0;points=[[0,0.5],[1,0.5]];portConstraint=eastwest;" vertex="1" parent="125zvC_kCItTa6n3HtVr-62">
          <mxGeometry y="330" width="450" height="30" as="geometry" />
        </mxCell>
        <mxCell id="125zvC_kCItTa6n3HtVr-94" value="" style="shape=partialRectangle;connectable=0;fillColor=none;top=0;left=0;bottom=0;right=0;editable=1;overflow=hidden;" vertex="1" parent="125zvC_kCItTa6n3HtVr-93">
          <mxGeometry width="30" height="30" as="geometry" />
        </mxCell>
        <mxCell id="125zvC_kCItTa6n3HtVr-95" value="city                                        VARCHAR(64)" style="shape=partialRectangle;connectable=0;fillColor=none;top=0;left=0;bottom=0;right=0;align=left;spacingLeft=6;overflow=hidden;" vertex="1" parent="125zvC_kCItTa6n3HtVr-93">
          <mxGeometry x="30" width="420" height="30" as="geometry" />
        </mxCell>
        <mxCell id="125zvC_kCItTa6n3HtVr-96" value="" style="shape=partialRectangle;collapsible=0;dropTarget=0;pointerEvents=0;fillColor=none;top=0;left=0;bottom=0;right=0;points=[[0,0.5],[1,0.5]];portConstraint=eastwest;" vertex="1" parent="125zvC_kCItTa6n3HtVr-62">
          <mxGeometry y="360" width="450" height="30" as="geometry" />
        </mxCell>
        <mxCell id="125zvC_kCItTa6n3HtVr-97" value="" style="shape=partialRectangle;connectable=0;fillColor=none;top=0;left=0;bottom=0;right=0;editable=1;overflow=hidden;" vertex="1" parent="125zvC_kCItTa6n3HtVr-96">
          <mxGeometry width="30" height="30" as="geometry" />
        </mxCell>
        <mxCell id="125zvC_kCItTa6n3HtVr-98" value="province                               VARCHAR(32)" style="shape=partialRectangle;connectable=0;fillColor=none;top=0;left=0;bottom=0;right=0;align=left;spacingLeft=6;overflow=hidden;" vertex="1" parent="125zvC_kCItTa6n3HtVr-96">
          <mxGeometry x="30" width="420" height="30" as="geometry" />
        </mxCell>
        <mxCell id="125zvC_kCItTa6n3HtVr-124" value="" style="shape=partialRectangle;collapsible=0;dropTarget=0;pointerEvents=0;fillColor=none;top=0;left=0;bottom=0;right=0;points=[[0,0.5],[1,0.5]];portConstraint=eastwest;" vertex="1" parent="125zvC_kCItTa6n3HtVr-62">
          <mxGeometry y="390" width="450" height="30" as="geometry" />
        </mxCell>
        <mxCell id="125zvC_kCItTa6n3HtVr-125" value="" style="shape=partialRectangle;connectable=0;fillColor=none;top=0;left=0;bottom=0;right=0;editable=1;overflow=hidden;" vertex="1" parent="125zvC_kCItTa6n3HtVr-124">
          <mxGeometry width="30" height="30" as="geometry" />
        </mxCell>
        <mxCell id="125zvC_kCItTa6n3HtVr-126" value="post_code                           CHAR(7)" style="shape=partialRectangle;connectable=0;fillColor=none;top=0;left=0;bottom=0;right=0;align=left;spacingLeft=6;overflow=hidden;" vertex="1" parent="125zvC_kCItTa6n3HtVr-124">
          <mxGeometry x="30" width="420" height="30" as="geometry" />
        </mxCell>
        <mxCell id="125zvC_kCItTa6n3HtVr-127" value="" style="shape=partialRectangle;collapsible=0;dropTarget=0;pointerEvents=0;fillColor=none;top=0;left=0;bottom=0;right=0;points=[[0,0.5],[1,0.5]];portConstraint=eastwest;" vertex="1" parent="125zvC_kCItTa6n3HtVr-62">
          <mxGeometry y="420" width="450" height="30" as="geometry" />
        </mxCell>
        <mxCell id="125zvC_kCItTa6n3HtVr-128" value="" style="shape=partialRectangle;connectable=0;fillColor=none;top=0;left=0;bottom=0;right=0;editable=1;overflow=hidden;" vertex="1" parent="125zvC_kCItTa6n3HtVr-127">
          <mxGeometry width="30" height="30" as="geometry" />
        </mxCell>
        <mxCell id="125zvC_kCItTa6n3HtVr-129" value="country                                 VARCHAR(32)" style="shape=partialRectangle;connectable=0;fillColor=none;top=0;left=0;bottom=0;right=0;align=left;spacingLeft=6;overflow=hidden;" vertex="1" parent="125zvC_kCItTa6n3HtVr-127">
          <mxGeometry x="30" width="420" height="30" as="geometry" />
        </mxCell>
        <mxCell id="125zvC_kCItTa6n3HtVr-135" value="" style="shape=partialRectangle;collapsible=0;dropTarget=0;pointerEvents=0;fillColor=none;top=0;left=0;bottom=0;right=0;points=[[0,0.5],[1,0.5]];portConstraint=eastwest;" vertex="1" parent="125zvC_kCItTa6n3HtVr-62">
          <mxGeometry y="450" width="450" height="30" as="geometry" />
        </mxCell>
        <mxCell id="125zvC_kCItTa6n3HtVr-136" value="" style="shape=partialRectangle;connectable=0;fillColor=none;top=0;left=0;bottom=0;right=0;editable=1;overflow=hidden;" vertex="1" parent="125zvC_kCItTa6n3HtVr-135">
          <mxGeometry width="30" height="30" as="geometry" />
        </mxCell>
        <mxCell id="125zvC_kCItTa6n3HtVr-137" value="owner_id                              INTEGER REFERENCES users(id)" style="shape=partialRectangle;connectable=0;fillColor=none;top=0;left=0;bottom=0;right=0;align=left;spacingLeft=6;overflow=hidden;" vertex="1" parent="125zvC_kCItTa6n3HtVr-135">
          <mxGeometry x="30" width="420" height="30" as="geometry" />
        </mxCell>
        <mxCell id="125zvC_kCItTa6n3HtVr-153" value="" style="shape=partialRectangle;collapsible=0;dropTarget=0;pointerEvents=0;fillColor=none;top=0;left=0;bottom=0;right=0;points=[[0,0.5],[1,0.5]];portConstraint=eastwest;" vertex="1" parent="125zvC_kCItTa6n3HtVr-62">
          <mxGeometry y="480" width="450" height="30" as="geometry" />
        </mxCell>
        <mxCell id="125zvC_kCItTa6n3HtVr-154" value="" style="shape=partialRectangle;connectable=0;fillColor=none;top=0;left=0;bottom=0;right=0;editable=1;overflow=hidden;" vertex="1" parent="125zvC_kCItTa6n3HtVr-153">
          <mxGeometry width="30" height="30" as="geometry" />
        </mxCell>
        <mxCell id="125zvC_kCItTa6n3HtVr-155" value="num_bedrooms                   INTEGER" style="shape=partialRectangle;connectable=0;fillColor=none;top=0;left=0;bottom=0;right=0;align=left;spacingLeft=6;overflow=hidden;" vertex="1" parent="125zvC_kCItTa6n3HtVr-153">
          <mxGeometry x="30" width="420" height="30" as="geometry" />
        </mxCell>
        <mxCell id="125zvC_kCItTa6n3HtVr-130" value="" style="edgeStyle=entityRelationEdgeStyle;fontSize=12;html=1;endArrow=ERzeroToMany;endFill=1;entryX=0;entryY=0.5;entryDx=0;entryDy=0;exitX=1;exitY=0.5;exitDx=0;exitDy=0;" edge="1" parent="1" source="125zvC_kCItTa6n3HtVr-26" target="125zvC_kCItTa6n3HtVr-135">
          <mxGeometry width="100" height="100" relative="1" as="geometry">
            <mxPoint x="290" y="50" as="sourcePoint" />
            <mxPoint x="290" y="201" as="targetPoint" />
          </mxGeometry>
        </mxCell>
        <mxCell id="125zvC_kCItTa6n3HtVr-131" value="" style="edgeStyle=entityRelationEdgeStyle;fontSize=12;html=1;endArrow=ERzeroToMany;endFill=1;exitX=1;exitY=0.5;exitDx=0;exitDy=0;" edge="1" parent="1" source="125zvC_kCItTa6n3HtVr-26" target="125zvC_kCItTa6n3HtVr-144">
          <mxGeometry width="100" height="100" relative="1" as="geometry">
            <mxPoint x="290" y="50" as="sourcePoint" />
            <mxPoint x="330" y="380" as="targetPoint" />
          </mxGeometry>
        </mxCell>
        <mxCell id="125zvC_kCItTa6n3HtVr-139" value="" style="edgeStyle=entityRelationEdgeStyle;fontSize=12;html=1;endArrow=ERzeroToMany;endFill=1;exitX=0;exitY=0.5;exitDx=0;exitDy=0;entryX=1;entryY=0.5;entryDx=0;entryDy=0;" edge="1" parent="1" source="125zvC_kCItTa6n3HtVr-66" target="125zvC_kCItTa6n3HtVr-147">
          <mxGeometry width="100" height="100" relative="1" as="geometry">
            <mxPoint x="350" y="260" as="sourcePoint" />
            <mxPoint x="370" y="520" as="targetPoint" />
          </mxGeometry>
        </mxCell>
        <mxCell id="125zvC_kCItTa6n3HtVr-25" value="users" style="shape=table;startSize=30;container=1;collapsible=1;childLayout=tableLayout;fixedRows=1;rowLines=0;fontStyle=1;align=center;resizeLast=1;" vertex="1" parent="1">
          <mxGeometry x="70" y="240" width="290" height="150" as="geometry" />
        </mxCell>
        <mxCell id="125zvC_kCItTa6n3HtVr-26" value="" style="shape=partialRectangle;collapsible=0;dropTarget=0;pointerEvents=0;fillColor=none;top=0;left=0;bottom=1;right=0;points=[[0,0.5],[1,0.5]];portConstraint=eastwest;" vertex="1" parent="125zvC_kCItTa6n3HtVr-25">
          <mxGeometry y="30" width="290" height="30" as="geometry" />
        </mxCell>
        <mxCell id="125zvC_kCItTa6n3HtVr-27" value="PK" style="shape=partialRectangle;connectable=0;fillColor=none;top=0;left=0;bottom=0;right=0;fontStyle=1;overflow=hidden;" vertex="1" parent="125zvC_kCItTa6n3HtVr-26">
          <mxGeometry width="30" height="30" as="geometry" />
        </mxCell>
        <mxCell id="125zvC_kCItTa6n3HtVr-28" value="SERIAL PRIMARY KEY" style="shape=partialRectangle;connectable=0;fillColor=none;top=0;left=0;bottom=0;right=0;align=left;spacingLeft=6;fontStyle=5;overflow=hidden;" vertex="1" parent="125zvC_kCItTa6n3HtVr-26">
          <mxGeometry x="30" width="260" height="30" as="geometry" />
        </mxCell>
        <mxCell id="125zvC_kCItTa6n3HtVr-29" value="" style="shape=partialRectangle;collapsible=0;dropTarget=0;pointerEvents=0;fillColor=none;top=0;left=0;bottom=0;right=0;points=[[0,0.5],[1,0.5]];portConstraint=eastwest;" vertex="1" parent="125zvC_kCItTa6n3HtVr-25">
          <mxGeometry y="60" width="290" height="30" as="geometry" />
        </mxCell>
        <mxCell id="125zvC_kCItTa6n3HtVr-30" value="" style="shape=partialRectangle;connectable=0;fillColor=none;top=0;left=0;bottom=0;right=0;editable=1;overflow=hidden;" vertex="1" parent="125zvC_kCItTa6n3HtVr-29">
          <mxGeometry width="30" height="30" as="geometry" />
        </mxCell>
        <mxCell id="125zvC_kCItTa6n3HtVr-31" value="name                               VARCHAR(64)" style="shape=partialRectangle;connectable=0;fillColor=none;top=0;left=0;bottom=0;right=0;align=left;spacingLeft=6;overflow=hidden;" vertex="1" parent="125zvC_kCItTa6n3HtVr-29">
          <mxGeometry x="30" width="260" height="30" as="geometry" />
        </mxCell>
        <mxCell id="125zvC_kCItTa6n3HtVr-32" value="" style="shape=partialRectangle;collapsible=0;dropTarget=0;pointerEvents=0;fillColor=none;top=0;left=0;bottom=0;right=0;points=[[0,0.5],[1,0.5]];portConstraint=eastwest;" vertex="1" parent="125zvC_kCItTa6n3HtVr-25">
          <mxGeometry y="90" width="290" height="30" as="geometry" />
        </mxCell>
        <mxCell id="125zvC_kCItTa6n3HtVr-33" value="" style="shape=partialRectangle;connectable=0;fillColor=none;top=0;left=0;bottom=0;right=0;editable=1;overflow=hidden;" vertex="1" parent="125zvC_kCItTa6n3HtVr-32">
          <mxGeometry width="30" height="30" as="geometry" />
        </mxCell>
        <mxCell id="125zvC_kCItTa6n3HtVr-34" value="email                               VARCHAR(255)" style="shape=partialRectangle;connectable=0;fillColor=none;top=0;left=0;bottom=0;right=0;align=left;spacingLeft=6;overflow=hidden;" vertex="1" parent="125zvC_kCItTa6n3HtVr-32">
          <mxGeometry x="30" width="260" height="30" as="geometry" />
        </mxCell>
        <mxCell id="125zvC_kCItTa6n3HtVr-35" value="" style="shape=partialRectangle;collapsible=0;dropTarget=0;pointerEvents=0;fillColor=none;top=0;left=0;bottom=0;right=0;points=[[0,0.5],[1,0.5]];portConstraint=eastwest;" vertex="1" parent="125zvC_kCItTa6n3HtVr-25">
          <mxGeometry y="120" width="290" height="30" as="geometry" />
        </mxCell>
        <mxCell id="125zvC_kCItTa6n3HtVr-36" value="" style="shape=partialRectangle;connectable=0;fillColor=none;top=0;left=0;bottom=0;right=0;editable=1;overflow=hidden;" vertex="1" parent="125zvC_kCItTa6n3HtVr-35">
          <mxGeometry width="30" height="30" as="geometry" />
        </mxCell>
        <mxCell id="125zvC_kCItTa6n3HtVr-37" value="password                        CHAR(64)" style="shape=partialRectangle;connectable=0;fillColor=none;top=0;left=0;bottom=0;right=0;align=left;spacingLeft=6;overflow=hidden;" vertex="1" parent="125zvC_kCItTa6n3HtVr-35">
          <mxGeometry x="30" width="260" height="30" as="geometry" />
        </mxCell>
        <mxCell id="125zvC_kCItTa6n3HtVr-140" value="reservations" style="shape=table;startSize=30;container=1;collapsible=1;childLayout=tableLayout;fixedRows=1;rowLines=0;fontStyle=1;align=center;resizeLast=1;" vertex="1" parent="1">
          <mxGeometry x="400" width="320" height="190" as="geometry" />
        </mxCell>
        <mxCell id="125zvC_kCItTa6n3HtVr-141" value="" style="shape=partialRectangle;collapsible=0;dropTarget=0;pointerEvents=0;fillColor=none;top=0;left=0;bottom=1;right=0;points=[[0,0.5],[1,0.5]];portConstraint=eastwest;" vertex="1" parent="125zvC_kCItTa6n3HtVr-140">
          <mxGeometry y="30" width="320" height="30" as="geometry" />
        </mxCell>
        <mxCell id="125zvC_kCItTa6n3HtVr-142" value="PK" style="shape=partialRectangle;connectable=0;fillColor=none;top=0;left=0;bottom=0;right=0;fontStyle=1;overflow=hidden;" vertex="1" parent="125zvC_kCItTa6n3HtVr-141">
          <mxGeometry width="30" height="30" as="geometry" />
        </mxCell>
        <mxCell id="125zvC_kCItTa6n3HtVr-143" value="SERIAL PRIMARY KEY" style="shape=partialRectangle;connectable=0;fillColor=none;top=0;left=0;bottom=0;right=0;align=left;spacingLeft=6;fontStyle=5;overflow=hidden;" vertex="1" parent="125zvC_kCItTa6n3HtVr-141">
          <mxGeometry x="30" width="290" height="30" as="geometry" />
        </mxCell>
        <mxCell id="125zvC_kCItTa6n3HtVr-144" value="" style="shape=partialRectangle;collapsible=0;dropTarget=0;pointerEvents=0;fillColor=none;top=0;left=0;bottom=0;right=0;points=[[0,0.5],[1,0.5]];portConstraint=eastwest;" vertex="1" parent="125zvC_kCItTa6n3HtVr-140">
          <mxGeometry y="60" width="320" height="30" as="geometry" />
        </mxCell>
        <mxCell id="125zvC_kCItTa6n3HtVr-145" value="" style="shape=partialRectangle;connectable=0;fillColor=none;top=0;left=0;bottom=0;right=0;editable=1;overflow=hidden;" vertex="1" parent="125zvC_kCItTa6n3HtVr-144">
          <mxGeometry width="30" height="30" as="geometry" />
        </mxCell>
        <mxCell id="125zvC_kCItTa6n3HtVr-146" value="guest_id INTEGER REFERENCES users(id)" style="shape=partialRectangle;connectable=0;fillColor=none;top=0;left=0;bottom=0;right=0;align=left;spacingLeft=6;overflow=hidden;" vertex="1" parent="125zvC_kCItTa6n3HtVr-144">
          <mxGeometry x="30" width="290" height="30" as="geometry" />
        </mxCell>
        <mxCell id="125zvC_kCItTa6n3HtVr-147" value="" style="shape=partialRectangle;collapsible=0;dropTarget=0;pointerEvents=0;fillColor=none;top=0;left=0;bottom=0;right=0;points=[[0,0.5],[1,0.5]];portConstraint=eastwest;" vertex="1" parent="125zvC_kCItTa6n3HtVr-140">
          <mxGeometry y="90" width="320" height="30" as="geometry" />
        </mxCell>
        <mxCell id="125zvC_kCItTa6n3HtVr-148" value="" style="shape=partialRectangle;connectable=0;fillColor=none;top=0;left=0;bottom=0;right=0;editable=1;overflow=hidden;" vertex="1" parent="125zvC_kCItTa6n3HtVr-147">
          <mxGeometry width="30" height="30" as="geometry" />
        </mxCell>
        <mxCell id="125zvC_kCItTa6n3HtVr-149" value="property_id INTEGER REFERENCES properties(id)" style="shape=partialRectangle;connectable=0;fillColor=none;top=0;left=0;bottom=0;right=0;align=left;spacingLeft=6;overflow=hidden;" vertex="1" parent="125zvC_kCItTa6n3HtVr-147">
          <mxGeometry x="30" width="290" height="30" as="geometry" />
        </mxCell>
        <mxCell id="125zvC_kCItTa6n3HtVr-150" value="" style="shape=partialRectangle;collapsible=0;dropTarget=0;pointerEvents=0;fillColor=none;top=0;left=0;bottom=0;right=0;points=[[0,0.5],[1,0.5]];portConstraint=eastwest;" vertex="1" parent="125zvC_kCItTa6n3HtVr-140">
          <mxGeometry y="120" width="320" height="30" as="geometry" />
        </mxCell>
        <mxCell id="125zvC_kCItTa6n3HtVr-151" value="" style="shape=partialRectangle;connectable=0;fillColor=none;top=0;left=0;bottom=0;right=0;editable=1;overflow=hidden;" vertex="1" parent="125zvC_kCItTa6n3HtVr-150">
          <mxGeometry width="30" height="30" as="geometry" />
        </mxCell>
        <mxCell id="125zvC_kCItTa6n3HtVr-152" value="start_date DATE" style="shape=partialRectangle;connectable=0;fillColor=none;top=0;left=0;bottom=0;right=0;align=left;spacingLeft=6;overflow=hidden;" vertex="1" parent="125zvC_kCItTa6n3HtVr-150">
          <mxGeometry x="30" width="290" height="30" as="geometry" />
        </mxCell>
        <mxCell id="125zvC_kCItTa6n3HtVr-189" value="" style="shape=partialRectangle;collapsible=0;dropTarget=0;pointerEvents=0;fillColor=none;top=0;left=0;bottom=0;right=0;points=[[0,0.5],[1,0.5]];portConstraint=eastwest;" vertex="1" parent="125zvC_kCItTa6n3HtVr-140">
          <mxGeometry y="150" width="320" height="30" as="geometry" />
        </mxCell>
        <mxCell id="125zvC_kCItTa6n3HtVr-190" value="" style="shape=partialRectangle;connectable=0;fillColor=none;top=0;left=0;bottom=0;right=0;editable=1;overflow=hidden;" vertex="1" parent="125zvC_kCItTa6n3HtVr-189">
          <mxGeometry width="30" height="30" as="geometry" />
        </mxCell>
        <mxCell id="125zvC_kCItTa6n3HtVr-191" value="end_date DATE" style="shape=partialRectangle;connectable=0;fillColor=none;top=0;left=0;bottom=0;right=0;align=left;spacingLeft=6;overflow=hidden;" vertex="1" parent="125zvC_kCItTa6n3HtVr-189">
          <mxGeometry x="30" width="290" height="30" as="geometry" />
        </mxCell>
        <mxCell id="125zvC_kCItTa6n3HtVr-160" value="property_reviews" style="shape=table;startSize=30;container=1;collapsible=1;childLayout=tableLayout;fixedRows=1;rowLines=0;fontStyle=1;align=center;resizeLast=1;" vertex="1" parent="1">
          <mxGeometry x="400" y="450" width="360" height="220" as="geometry" />
        </mxCell>
        <mxCell id="125zvC_kCItTa6n3HtVr-161" value="" style="shape=partialRectangle;collapsible=0;dropTarget=0;pointerEvents=0;fillColor=none;top=0;left=0;bottom=1;right=0;points=[[0,0.5],[1,0.5]];portConstraint=eastwest;" vertex="1" parent="125zvC_kCItTa6n3HtVr-160">
          <mxGeometry y="30" width="360" height="30" as="geometry" />
        </mxCell>
        <mxCell id="125zvC_kCItTa6n3HtVr-162" value="PK" style="shape=partialRectangle;connectable=0;fillColor=none;top=0;left=0;bottom=0;right=0;fontStyle=1;overflow=hidden;" vertex="1" parent="125zvC_kCItTa6n3HtVr-161">
          <mxGeometry width="30" height="30" as="geometry" />
        </mxCell>
        <mxCell id="125zvC_kCItTa6n3HtVr-163" value="UniqueID" style="shape=partialRectangle;connectable=0;fillColor=none;top=0;left=0;bottom=0;right=0;align=left;spacingLeft=6;fontStyle=5;overflow=hidden;" vertex="1" parent="125zvC_kCItTa6n3HtVr-161">
          <mxGeometry x="30" width="330" height="30" as="geometry" />
        </mxCell>
        <mxCell id="125zvC_kCItTa6n3HtVr-164" value="" style="shape=partialRectangle;collapsible=0;dropTarget=0;pointerEvents=0;fillColor=none;top=0;left=0;bottom=0;right=0;points=[[0,0.5],[1,0.5]];portConstraint=eastwest;" vertex="1" parent="125zvC_kCItTa6n3HtVr-160">
          <mxGeometry y="60" width="360" height="30" as="geometry" />
        </mxCell>
        <mxCell id="125zvC_kCItTa6n3HtVr-165" value="" style="shape=partialRectangle;connectable=0;fillColor=none;top=0;left=0;bottom=0;right=0;editable=1;overflow=hidden;" vertex="1" parent="125zvC_kCItTa6n3HtVr-164">
          <mxGeometry width="30" height="30" as="geometry" />
        </mxCell>
        <mxCell id="125zvC_kCItTa6n3HtVr-166" value="review_message TEXT" style="shape=partialRectangle;connectable=0;fillColor=none;top=0;left=0;bottom=0;right=0;align=left;spacingLeft=6;overflow=hidden;" vertex="1" parent="125zvC_kCItTa6n3HtVr-164">
          <mxGeometry x="30" width="330" height="30" as="geometry" />
        </mxCell>
        <mxCell id="125zvC_kCItTa6n3HtVr-167" value="" style="shape=partialRectangle;collapsible=0;dropTarget=0;pointerEvents=0;fillColor=none;top=0;left=0;bottom=0;right=0;points=[[0,0.5],[1,0.5]];portConstraint=eastwest;" vertex="1" parent="125zvC_kCItTa6n3HtVr-160">
          <mxGeometry y="90" width="360" height="30" as="geometry" />
        </mxCell>
        <mxCell id="125zvC_kCItTa6n3HtVr-168" value="" style="shape=partialRectangle;connectable=0;fillColor=none;top=0;left=0;bottom=0;right=0;editable=1;overflow=hidden;" vertex="1" parent="125zvC_kCItTa6n3HtVr-167">
          <mxGeometry width="30" height="30" as="geometry" />
        </mxCell>
        <mxCell id="125zvC_kCItTa6n3HtVr-169" value="review_rating INTEGER(5)" style="shape=partialRectangle;connectable=0;fillColor=none;top=0;left=0;bottom=0;right=0;align=left;spacingLeft=6;overflow=hidden;" vertex="1" parent="125zvC_kCItTa6n3HtVr-167">
          <mxGeometry x="30" width="330" height="30" as="geometry" />
        </mxCell>
        <mxCell id="125zvC_kCItTa6n3HtVr-170" value="" style="shape=partialRectangle;collapsible=0;dropTarget=0;pointerEvents=0;fillColor=none;top=0;left=0;bottom=0;right=0;points=[[0,0.5],[1,0.5]];portConstraint=eastwest;" vertex="1" parent="125zvC_kCItTa6n3HtVr-160">
          <mxGeometry y="120" width="360" height="30" as="geometry" />
        </mxCell>
        <mxCell id="125zvC_kCItTa6n3HtVr-171" value="" style="shape=partialRectangle;connectable=0;fillColor=none;top=0;left=0;bottom=0;right=0;editable=1;overflow=hidden;" vertex="1" parent="125zvC_kCItTa6n3HtVr-170">
          <mxGeometry width="30" height="30" as="geometry" />
        </mxCell>
        <mxCell id="125zvC_kCItTa6n3HtVr-172" value="guest_id INTEGER REFERENCES users(id)" style="shape=partialRectangle;connectable=0;fillColor=none;top=0;left=0;bottom=0;right=0;align=left;spacingLeft=6;overflow=hidden;" vertex="1" parent="125zvC_kCItTa6n3HtVr-170">
          <mxGeometry x="30" width="330" height="30" as="geometry" />
        </mxCell>
        <mxCell id="125zvC_kCItTa6n3HtVr-173" value="" style="shape=partialRectangle;collapsible=0;dropTarget=0;pointerEvents=0;fillColor=none;top=0;left=0;bottom=0;right=0;points=[[0,0.5],[1,0.5]];portConstraint=eastwest;" vertex="1" parent="125zvC_kCItTa6n3HtVr-160">
          <mxGeometry y="150" width="360" height="30" as="geometry" />
        </mxCell>
        <mxCell id="125zvC_kCItTa6n3HtVr-174" value="" style="shape=partialRectangle;connectable=0;fillColor=none;top=0;left=0;bottom=0;right=0;editable=1;overflow=hidden;" vertex="1" parent="125zvC_kCItTa6n3HtVr-173">
          <mxGeometry width="30" height="30" as="geometry" />
        </mxCell>
        <mxCell id="125zvC_kCItTa6n3HtVr-175" value="property_id INTEGER REFERENCES properties(id)" style="shape=partialRectangle;connectable=0;fillColor=none;top=0;left=0;bottom=0;right=0;align=left;spacingLeft=6;overflow=hidden;" vertex="1" parent="125zvC_kCItTa6n3HtVr-173">
          <mxGeometry x="30" width="330" height="30" as="geometry" />
        </mxCell>
        <mxCell id="125zvC_kCItTa6n3HtVr-192" value="" style="shape=partialRectangle;collapsible=0;dropTarget=0;pointerEvents=0;fillColor=none;top=0;left=0;bottom=0;right=0;points=[[0,0.5],[1,0.5]];portConstraint=eastwest;" vertex="1" parent="125zvC_kCItTa6n3HtVr-160">
          <mxGeometry y="180" width="360" height="30" as="geometry" />
        </mxCell>
        <mxCell id="125zvC_kCItTa6n3HtVr-193" value="" style="shape=partialRectangle;connectable=0;fillColor=none;top=0;left=0;bottom=0;right=0;editable=1;overflow=hidden;" vertex="1" parent="125zvC_kCItTa6n3HtVr-192">
          <mxGeometry width="30" height="30" as="geometry" />
        </mxCell>
        <mxCell id="125zvC_kCItTa6n3HtVr-194" value="reservation_id INTEGER REFERENCES reservations(id)" style="shape=partialRectangle;connectable=0;fillColor=none;top=0;left=0;bottom=0;right=0;align=left;spacingLeft=6;overflow=hidden;" vertex="1" parent="125zvC_kCItTa6n3HtVr-192">
          <mxGeometry x="30" width="330" height="30" as="geometry" />
        </mxCell>
        <mxCell id="125zvC_kCItTa6n3HtVr-195" value="" style="edgeStyle=entityRelationEdgeStyle;fontSize=12;html=1;endArrow=ERzeroToMany;endFill=1;" edge="1" parent="1" source="125zvC_kCItTa6n3HtVr-26" target="125zvC_kCItTa6n3HtVr-170">
          <mxGeometry width="100" height="100" relative="1" as="geometry">
            <mxPoint x="350" y="330" as="sourcePoint" />
            <mxPoint x="450" y="230" as="targetPoint" />
          </mxGeometry>
        </mxCell>
        <mxCell id="125zvC_kCItTa6n3HtVr-196" value="" style="edgeStyle=entityRelationEdgeStyle;fontSize=12;html=1;endArrow=ERzeroToMany;endFill=1;entryX=1;entryY=0.5;entryDx=0;entryDy=0;" edge="1" parent="1" source="125zvC_kCItTa6n3HtVr-63" target="125zvC_kCItTa6n3HtVr-173">
          <mxGeometry width="100" height="100" relative="1" as="geometry">
            <mxPoint x="480" y="320" as="sourcePoint" />
            <mxPoint x="510" y="210" as="targetPoint" />
          </mxGeometry>
        </mxCell>
        <mxCell id="125zvC_kCItTa6n3HtVr-197" value="" style="edgeStyle=entityRelationEdgeStyle;fontSize=12;html=1;endArrow=ERzeroToMany;endFill=1;" edge="1" parent="1" source="125zvC_kCItTa6n3HtVr-141" target="125zvC_kCItTa6n3HtVr-192">
          <mxGeometry width="100" height="100" relative="1" as="geometry">
            <mxPoint x="400" y="350" as="sourcePoint" />
            <mxPoint x="500" y="250" as="targetPoint" />
          </mxGeometry>
        </mxCell>
      </root>
    </mxGraphModel>
  </diagram>
</mxfile>
